<?xml version="1.0" encoding="utf-8"?>
<!-- Generator: Adobe Illustrator 25.0.1, SVG Export Plug-In . SVG Version: 6.00 Build 0)  -->
<svg version="1.0" id="katman_1" xmlns="http://www.w3.org/2000/svg" xmlns:xlink="http://www.w3.org/1999/xlink" x="0px" y="0px"
	 viewBox="0 0 2969.3 1860.1" style="enable-background:new 0 0 2969.3 1860.1;" xml:space="preserve">
<style type="text/css">
	.st0{fill:#F7971D;}
</style>
<path class="st0" d="M2682.5,579.8H1665.9c-31.6,3.5-49.1,22.8-52.2,58.2v584.1c3.1,35.2,20.4,54.6,51.9,58.2h1017.1
	c31.4-3.7,48.8-23,51.9-58.2V638C2731.6,602.8,2714.1,583.3,2682.5,579.8"/>
<path d="M2631.6,851.8c-17.2-19-40.5-31.3-65.7-36.9c-7.3-1.8-15.5-3.2-24.8-3.7c-33.4-2.8-76.1,10.3-96.1,27.1l4.8-136.7h-81.2
	V1125h75.4v-23.4c17.3,14.1,45.1,30.3,87.8,30.3h8c35.7,0,66-14.1,90.9-42.3c24.9-28.5,37.4-68.8,37.4-121.2
	c0-50.7-12.1-89.5-36.6-116.6 M2566.1,1044.9c-12.4,15.2-27.8,22.8-45.7,22.8c-23.3,0-42-10.7-56-32.4
	c-10.1-15.1-15.2-38.6-15.2-70.5c0-30.7,6.5-53.6,19.3-68.8c12.7-15.1,29-22.6,48.5-22.6c19.7,0,36.1,7.6,48.8,23.1
	c12.7,15.5,19,40.9,19,75.8c0,33-6.3,57.1-18.9,72.3 M2237.8,947.5c0,43.7-2,71.5-6.1,82.7c-4.2,11.3-11.7,20.7-22.6,28.2
	c-11.3,7.8-23.5,11.3-37.4,11.3c-12.1,0-22.1-2.8-30-8.5c-7.9-5.6-13.4-13.2-16.4-23c-2.8-9.9-4.5-36.1-4.5-79.4V818h-81.2v194.5
	c0,28.8,3.7,51.3,11,67.7c7.3,16.4,19.2,29.2,35.5,38.1c16.4,9.2,34.8,13.7,55.5,13.7c3.1,0,6.1,0,9.2-0.3
	c51.9-1.4,78.9-24.9,92.5-40.5v33.8h75.4V818h-81.2L2237.8,947.5z M1972.8,848.2c-7.5-10.9-18.7-19.7-33.8-26.8
	c-13.5-6.1-28.6-9.4-45.1-10.1h-0.8c-34.3-1.8-77.9,8.2-98.4,27.8V701.6h-81.2V1125h81.2V971.4c0-25.8,2.4-45.4,7.3-58.5
	c4.9-13.2,12.7-23.1,23.3-29.6c10.6-6.6,22.6-9.9,36.1-9.9c11.8,0,21.7,2.5,29.6,7.6c7.6,5.1,13.1,12,16.2,20.7
	c3.1,8.5,4.7,29,4.7,61.2V1125h81V944.9c0-27.3-1.4-47.6-4.2-60.6c-2.8-13.2-7.9-25.4-15.5-35.9 M1515.4,866.8
	c-3.1-13.2-8.7-25.4-16.6-35.8c-8-10.6-19.7-19.2-35.5-25.9c-15.8-6.8-32.7-10.1-51.6-10.1c-34.1-2-89.6,11-106.3,37.6v-30.4H1226
	v322.8h85.4V978.7c0-36.1,2-60.6,6.3-74.1c4.2-13.4,12.4-24,24-32.4c12-7.9,25.4-12,40-12c11.3,0,21.1,2.8,29.6,8.5
	c8,5.6,14.1,13.5,17.6,24c3.7,9.9,5.6,32.4,5.6,67.4v164.6h85.3V924.3c0-24.9-1.7-44.1-4.8-57.5 M1108.6,796
	c-25.4,3.2-49.3,23.7-59.9,36.6v-30.6h-79.4v322.8h85.4v-99.7c0-55,2.4-91.1,7-108.3c4.8-17.2,11.3-29,19.7-35.7
	c8.2-6.8,18.3-9.9,30.3-9.9c12.4,0,25.7,4.5,40,13.8l26.5-74.4c-18-10.7-36.6-16.1-56.4-16.1c-4.5,0-9,0.4-13.4,1.1 M760.4,794.7
	c-31.7,0-60.3,7-86,20.9c-25.4,14.1-45.4,34.3-59.2,60.6c-14.1,26.8-21.1,54.1-21.1,82.6c0,37.1,7,68.5,21.1,94.4
	c13.8,25.7,34.3,45.1,61.2,58.6c26.8,13.4,55,20,84.6,20c47.9,0,87.4-16.1,119-47.9s47.2-72.7,47.2-121.6
	c0-48.3-15.5-88.4-46.8-120.1c-31-31.7-71-47.5-119.8-47.5 M817,1036.9c-15.2,16.9-33.8,25.4-56.1,25.4s-40.9-8.5-56.4-25.4
	c-15.1-16.9-22.6-41.6-22.6-73.6c0-32,7.5-56.4,22.6-73.6c15.5-16.9,34.1-25.4,56.4-25.4s40.9,8.5,56.1,25.4
	c15.1,16.9,22.6,41.3,22.6,73C839.5,995.2,832,1019.8,817,1036.9 M486,686.1c-16.6-4.5-52.2-6.8-107.1-6.8H234.7v445.4h89.9v-168
	h58.6c40.9,0,71.9-2.1,93.3-6.3c15.8-3.5,31.3-10.6,46.5-21.1c15.2-10.6,28.2-25.4,38.1-44s14.8-41.6,14.8-69.1
	c0-35.2-8.5-64.3-25.7-86.7c-17.3-22.6-38.6-36.9-64.1-43.7 M473.2,852.1c-6.6,9.9-15.9,17.2-27.9,21.8s-35.7,7-71.2,7h-49.3V754.6
	h43.7c32.4,0,53.8,1.1,64.6,3.2c14.7,2.5,26.8,9.2,36.2,19.7c9.4,10.4,14.1,24,14.1,40c0,13.2-3.2,24.8-9.9,34.7"/>
</svg>
